<svg height="512" viewBox="0 0 50 60" width="512" xmlns="http://www.w3.org/2000/svg"><g id="Page-1" fill="none" fill-rule="evenodd"><g id="035---Recycle-Bin-Bag" fill-rule="nonzero" transform="translate(-1 -1)"><path id="Shape" d="m34 5v1c0 4.418278-3.581722 8-8 8s-8-3.581722-8-8v-1c-.0007449-1.32359896.8660241-2.49127941 2.1331663-2.87372597 1.2671423-.38244656 2.635187.11072645 3.3668337 1.21372597.5558236-.83793557 1.4944773-1.3416876 2.5-1.3416876s1.9441764.50375203 2.5 1.3416876c.7316467-1.10299952 2.0996914-1.59617253 3.3668337-1.21372597 1.2671422.38244656 2.1339112 1.55012701 2.1331663 2.87372597z" fill="#ffeb3a"/><path id="Shape" d="m31 2c-.5294274.00069224-1.0490398.14293829-1.505.412.9292776.53055085 1.5034713 1.51793517 1.505 2.588v1c-.0019753 3.83832212-2.7297515 7.134315-6.5 7.854 2.3426125.4549119 4.765865-.162594 6.6050806-1.6831414 1.8392156-1.5205473 2.9012951-3.78449367 2.8949194-6.1708586v-1c0-1.65685425-1.3431458-3-3-3z" fill="#fdd834"/><path id="Shape" d="m49.35 59.19-.14.14c-.7167303.7215604-1.8297453.8694148-2.71.36l-2.92-1.96c-3.75 1.37-10.22 2.27-17.58 2.27s-13.83-.9-17.58-2.27l-2.92 1.96c-.88025466.5094148-1.99326973.3615604-2.71-.36l-.14-.14c-.86706657-.8881701-.86261794-2.3072835.01-3.19 4.53-4.76 5.34-11.07 5.34-15v-9c0-9.9411255 8.0588745-18 18-18s18 8.0588745 18 18v9c-.0116719 2.4300534.3147907 4.8499153.97 7.19.8074172 2.9168747 2.3064741 5.5959671 4.37 7.81.8726179.8827165.8770666 2.3018299.01 3.19z" fill="#ffdc00"/><path id="Shape" d="m49.34 56c-2.0635259-2.2140329-3.5625828-4.8931253-4.37-7.81-.6552093-2.3400847-.9816719-4.7599466-.97-7.19v-9c.0018578-4.7744661-1.8939687-9.3539161-5.2700263-12.7299737s-7.9555076-5.2718841-12.7299737-5.2700263c-.507 0-1 .035-1.5.076 9.3298271.7633609 16.5098129 8.5630013 16.5 17.924v9c-.0116719 2.4300534.3147907 4.8499153.97 7.19.8074172 2.9168747 2.3064741 5.5959671 4.37 7.81.8726179.8827165.8770666 2.3018299.01 3.19l-.14.14c-.034.034-.073.061-.109.092l.4.268c.8802547.5094148 1.9932697.3615604 2.71-.36l.14-.14c.8667903-.8884423.8618968-2.3075567-.011-3.19z" fill="#fec108"/><g fill="#60a917"><path id="Shape" d="m24 44h-8l4.069-6.912.083.358c.1058383.4519769.5087967.7716931.973.772.0767534.0002461.1532726-.0084798.228-.026.5374761-.1253343.8717991-.6623994.747-1.2l-.644-2.755c-.1257913-.53707-.6627117-.8708555-1.2-.746l-2.755.643c-.5379253.1259209-.8719209.6640747-.746 1.202s.6640747.8719209 1.202.746l.446-.105-4.125 7.007c-.36405.6215504-.368625 1.3901599-.012 2.016.3476006.619605 1.0035556 1.0023092 1.714 1h8.02c.5522847 0 1-.4477153 1-1s-.4477153-1-1-1z"/><path id="Shape" d="m37.72 42.982-1.859-3.155c-.1767381-.3172742-.5115994-.5137853-.8747786-.513358-.3631791.0004274-.697577.197726-.873568.5154153-.1759909.3176892-.1659056.705822.0263466 1.0139427l1.881 3.157h-5.606l.293-.293c.3789722-.3923789.3735524-1.0160848-.0121814-1.4018186s-1.0094397-.3911536-1.4018186-.0121814l-2 2c-.3903819.3904999-.3903819 1.0235001 0 1.414l2 2c.3923789.3789722 1.0160848.3735524 1.4018186-.0121814s.3911536-1.0094397.0121814-1.4018186l-.293-.293h5.606c.7102591.0025869 1.3660472-.3802432 1.713-1 .3575038-.6264204.3525446-1.3962375-.013-2.018z"/><path id="Shape" d="m30.485 35.371c-.3512785-.0907615-.7241605.0158615-.9743553.27861-.2501947.2627486-.3384492.6404-.2306123.986818s.3948466.607253.7499676.681572l2.755.643c.5372883.1248555 1.0742087-.20893 1.2-.746l.643-2.754c.111273-.5316994-.2222677-1.0549885-.7512338-1.1786041-.528966-.1236155-1.059875.1976578-1.1957662.7236041l-.075.318-4.906-8.354c-.3554124-.6010166-1.0017601-.9697015-1.7-.9697015s-1.3445876.3686849-1.7.9697015l-2.665 4.52c-.1814909.3077843-.1849945.689013-.0091909 1.0000809s.5042055.5047164.8615.508.6892-.1842966.8706909-.4920809l2.621-4.522 4.991 8.5z"/></g><path id="Shape" d="m50.058 59.9c1.2571432-1.2693165 1.260708-3.3133061.008-4.587-4.166-4.372-5.058-10.14-5.066-14.237 0-.025 0-.051 0-.076v-9c-.0157025-8.6514931-5.869329-16.2019481-14.244-18.373 2.6361426-1.6395229 4.2404168-4.52260467 4.244-7.627v-1c.0005773-1.53817363-.8809064-2.94041862-2.2672725-3.60672749s-3.0319911-.47863121-4.2327275.48272749c-1.4781368-1.12110013-3.5218632-1.12110013-5 0-1.2007364-.9613587-2.8463614-1.14903636-4.2327275-.48272749s-2.2678498 2.06855386-2.2672725 3.60672749v1c-.0034217 2.38919743.9447645 4.681397 2.635 6.37.4848763.4778364 1.0215258.9001124 1.6 1.259-8.3701759 2.1746179-14.21910541 9.7229624-14.235 18.371v9 .076c-.011 4.1-.9 9.864-5.069 14.234-1.25575902 1.2739357-1.25129799 3.3215481.01 4.59l.141.14c1.05892977 1.0457607 2.69008055 1.2454431 3.97.486l2.514-1.685c4.039 1.353 10.489 2.159 17.434 2.159s13.4-.806 17.435-2.164l2.573 1.724c1.2727032.7253503 2.873192.5108602 3.91-.524zm-29.009-48.944c-1.3138285-1.31449154-2.0509916-3.09749809-2.049-4.956v-1c0-1.1045695.8954305-2 2-2 .6730312-.00380834 1.3016715.33538605 1.668.9 0 .007.014.009.019.016s.008.023.016.033c.1945901.31599417.2974247.679897.297 1.051 0 .55228475.4477153 1 1 1s1-.44771525 1-1c-.0008859-.51999235-.102773-1.03486143-.3-1.516.4348712-.37276579 1.008694-.5411946 1.5760481-.46260258.567354.07859202 1.0737852.39666167 1.3909519.87360258 0 .007.014.009.019.016s.008.023.016.033c.1958363.31733583.2990545.68310217.298 1.056 0 .55228475.4477153 1 1 1s1-.44771525 1-1c-.0008859-.51999235-.102773-1.03486143-.3-1.516.3600841-.31400874.8222367-.48607172 1.3-.484 1.1045695 0 2 .8954305 2 2v1c-.0018401 2.830556-1.7070019 5.3818464-4.3216515 6.4661242-2.6146496 1.0842777-5.6249048.4884393-7.6293485-1.5101242zm27.6 47.526-.14.14c-.3773259.3851998-.9605767.481869-1.442.239l-5.508-3.692c-.4589486-.3073465-1.0801535-.1844486-1.3875.2745s-.1844486 1.0801535.2745 1.3875l.839.562c-5.0116534 1.1494925-10.1438652 1.6890715-15.285 1.607-5.1391379.0817342-10.2693235-.4578436-15.279-1.607l.838-.562c.2968877-.1988183.465155-.5409217.4414171-.8974431-.0237378-.3565215-.2358744-.6732969-.5565-.831-.3206255-.1577032-.7010294-.1323752-.9979171.0664431l-5.446 3.654c-.48841573.2765309-1.10110034.1948396-1.5-.2l-.141-.141c-.48314497-.5036509-.47200696-1.3020231.025-1.792 4.644-4.876 5.616-11.223 5.616-15.69 0-.026 0-.052 0-.077v-8.923c0-9.3888407 7.6111593-17 17-17s17 7.6111593 17 17v8.923.077c0 4.467.976 10.815 5.622 15.69.4961602.4908037.5059615 1.2891635.022 1.792z" fill="#000"/></g></g></svg>