<svg height="512pt" viewBox="0 0 512 512" width="512pt" xmlns="http://www.w3.org/2000/svg"><path d="m499.269531 0h-486.539062c-7 0-12.730469 5.730469-12.730469 12.730469v486.539062c0 7 5.730469 12.730469 12.730469 12.730469h486.539062c7 0 12.730469-5.730469 12.730469-12.730469v-486.539062c0-7-5.730469-12.730469-12.730469-12.730469zm0 0" fill="#544e55"/><path d="m31.828125 499.269531v-486.539062c0-7 5.730469-12.730469 12.734375-12.730469h-31.832031c-7 0-12.730469 5.730469-12.730469 12.730469v486.539062c0 7 5.730469 12.730469 12.730469 12.730469h31.832031c-7.003906 0-12.734375-5.730469-12.734375-12.730469zm0 0" fill="#453f46"/><path d="m478.222656 33.804688c-1.210937-1.21875-2.890625-1.976563-4.742187-1.976563h-434.960938c-3.695312 0-6.691406 2.996094-6.691406 6.691406v434.960938c0 1.773437.695313 3.378906 1.820313 4.574219zm0 0" fill="#695d67"/><path d="m63.078125 38.519531c0-3.695312 2.996094-6.691406 6.691406-6.691406h-31.25c-3.695312 0-6.691406 2.996094-6.691406 6.691406v434.960938c0 1.769531.695313 3.375 1.820313 4.574219l29.429687-29.410157zm0 0" fill="#544e55"/><path d="m478.214844 33.808594-4.777344 4.773437-439.78125 439.464844c1.21875 1.300781 2.941406 2.125 4.863281 2.125h434.960938c3.695312 0 6.691406-2.996094 6.691406-6.691406v-434.960938c0-1.839843-.75-3.5-1.957031-4.710937zm0 0" fill="#dfebfa"/><path d="m473.480469 448.878906h-410.636719l-29.1875 29.167969c1.21875 1.300781 2.941406 2.125 4.863281 2.125h434.960938c3.695312 0 6.691406-2.996094 6.691406-6.691406v-31.292969c0 3.695312-2.996094 6.691406-6.691406 6.691406zm0 0" fill="#b1dbfc"/><path d="m254.683594 145.492188h-66.410156c-3.085938 0-5.589844-2.503907-5.589844-5.59375v-66.410157c0-3.40625-2.761719-6.167969-6.171875-6.167969h-25.527344c-3.410156 0-6.171875 2.761719-6.171875 6.167969v66.410157c0 3.089843-2.503906 5.59375-5.589844 5.59375h-66.410156c-3.410156 0-6.171875 2.761718-6.171875 6.167968v25.53125c0 3.40625 2.761719 6.171875 6.171875 6.171875h66.410156c3.085938 0 5.589844 2.5 5.589844 5.589844v66.410156c0 3.40625 2.761719 6.171875 6.171875 6.171875h25.527344c3.410156 0 6.171875-2.765625 6.171875-6.171875v-66.410156c0-3.089844 2.503906-5.589844 5.589844-5.589844h66.410156c3.410156 0 6.171875-2.765625 6.171875-6.171875v-25.53125c0-3.40625-2.761719-6.167968-6.171875-6.167968zm0 0" fill="#dfebfa"/><g fill="#b1dbfc"><path d="m172.628906 139.898438v-66.410157c0-3.015625 2.164063-5.523437 5.027344-6.058593-.371094-.070313-.753906-.109376-1.144531-.109376h-25.527344c-3.410156 0-6.171875 2.761719-6.171875 6.167969v66.410157c0 3.089843-2.503906 5.59375-5.589844 5.59375h27.8125c3.089844 0 5.59375-2.503907 5.59375-5.59375zm0 0"/><path d="m172.628906 255.363281v-66.410156c0-3.089844-2.503906-5.59375-5.59375-5.59375h-27.8125c3.085938 0 5.589844 2.503906 5.589844 5.59375v66.410156c0 3.40625 2.761719 6.167969 6.171875 6.167969h25.527344c.390625 0 .773437-.039062 1.144531-.109375-2.859375-.535156-5.027344-3.042969-5.027344-6.058594zm0 0"/><path d="m94.457031 177.191406v-25.53125c0-3.40625 2.761719-6.167968 6.171875-6.167968h-27.816406c-3.40625 0-6.171875 2.761718-6.171875 6.167968v25.53125c0 3.40625 2.765625 6.171875 6.171875 6.171875h27.816406c-3.410156-.003906-6.171875-2.765625-6.171875-6.171875zm0 0"/></g><path d="m243.324219 346.402344h181.871093c3.40625 0 6.171876 2.761718 6.171876 6.167968v25.53125c0 3.40625-2.765626 6.171876-6.171876 6.171876h-181.871093c-3.410157 0-6.171875-2.765626-6.171875-6.171876v-25.53125c0-3.40625 2.761718-6.167968 6.171875-6.167968zm0 0" fill="#695d67"/><path d="m279.90625 378.101562v-25.53125c0-3.40625 2.761719-6.167968 6.167969-6.167968h-42.75c-3.410157 0-6.171875 2.761718-6.171875 6.167968v25.53125c0 3.40625 2.761718 6.171876 6.171875 6.171876h42.75c-3.40625 0-6.167969-2.765626-6.167969-6.171876zm0 0" fill="#000"/></svg>