<svg id="Layer_5" enable-background="new 0 0 64 64" height="512" viewBox="0 0 64 64" width="512" xmlns="http://www.w3.org/2000/svg"><path d="m55.033 13.712c1.792-1.269 2.967-3.354 2.967-5.712 0-3.86-3.14-7-7-7s-7 3.14-7 7c0 2.358 1.175 4.443 2.967 5.712-3.822 1.37-6.749 4.617-7.661 8.633-1.371-2.293-3.219-4.3-5.454-5.844 5.048-3.488 8.148-9.332 8.148-15.501h-2c0 .672-.046 1.34-.126 2h-15.748c-.08-.66-.126-1.328-.126-2h-2c0 6.169 3.1 12.013 8.148 15.5-2.235 1.544-4.083 3.552-5.454 5.845-.912-4.015-3.84-7.263-7.661-8.633 1.792-1.269 2.967-3.354 2.967-5.712 0-3.86-3.14-7-7-7s-7 3.14-7 7c0 2.358 1.175 4.443 2.967 5.712-4.636 1.662-7.967 6.088-7.967 11.288v9c0 2.757 2.243 5 5 5v20c0 2.206 1.794 4 4 4 1.2 0 2.266-.542 3-1.382.734.84 1.8 1.382 3 1.382 2.206 0 4-1.794 4-4v-20c1.094 0 2.142-.365 2.996-1.003 1.292 3.814 3.79 7.18 7.152 9.503-5.048 3.487-8.148 9.331-8.148 15.5h2c0-.672.046-1.34.126-2h15.748c.08.66.126 1.328.126 2h2c0-6.169-3.1-12.013-8.148-15.5 3.362-2.322 5.859-5.689 7.152-9.503.854.638 1.902 1.003 2.996 1.003v20c0 2.206 1.794 4 4 4 1.202 0 2.269-.544 3.003-1.386.741.842 1.824 1.386 3.062 1.386h.001c2.169-.036 3.934-1.897 3.934-4.15v-19.85c2.757 0 5-2.243 5-5v-9c0-5.2-3.331-9.626-7.967-11.288zm-9.033-5.712c0-2.757 2.243-5 5-5s5 2.243 5 5-2.243 5-5 5-5-2.243-5-5zm-20.452 31h12.905c-.317.69-.677 1.359-1.083 2h-10.739c-.406-.641-.766-1.31-1.083-2zm12.904-14h-12.904c.317-.69.677-1.359 1.083-2h10.739c.405.641.765 1.31 1.082 2zm-13.674 2h14.445c.206.654.373 1.322.497 2h-15.44c.125-.678.292-1.346.498-2zm-.778 5c0-.335.013-.668.033-1h15.934c.02.332.033.665.033 1s-.013.668-.033 1h-15.934c-.02-.332-.033-.665-.033-1zm.778 5c-.206-.654-.373-1.322-.497-2h15.44c-.125.678-.292 1.346-.497 2zm4.273-24h5.898c-.887.875-1.871 1.661-2.949 2.325-1.078-.664-2.062-1.45-2.949-2.325zm-1.741-2c-.469-.636-.888-1.306-1.263-2h11.907c-.376.694-.795 1.364-1.263 2zm12.194-6c-.169.681-.38 1.348-.63 2h-13.747c-.251-.652-.461-1.319-.63-2zm-7.504 12.675c1.475.909 2.78 2.037 3.888 3.325h-7.776c1.108-1.288 2.413-2.416 3.888-3.325zm-24-9.675c0-2.757 2.243-5 5-5s5 2.243 5 5-2.243 5-5 5-5-2.243-5-5zm12 29v-16h-2v38c0 1.103-.897 2-2 2s-2-.897-2-2v-24h-2v24c0 1.103-.897 2-2 2s-2-.897-2-2v-38h-2v16c-1.654 0-3-1.346-3-3v-9c0-5.514 4.486-10 10-10s10 4.486 10 10v.991c-.651 1.916-1 3.944-1 6.009 0 1.276.137 2.538.392 3.769-.562.756-1.44 1.231-2.392 1.231zm14.949 14h-5.898c.887-.875 1.871-1.661 2.949-2.325 1.078.664 2.062 1.45 2.949 2.325zm1.741 2c.469.636.888 1.306 1.263 2h-11.906c.376-.694.795-1.364 1.263-2zm-12.194 6c.169-.681.38-1.348.63-2h13.747c.251.652.462 1.319.63 2zm7.504-12.675c-1.475-.909-2.78-2.037-3.888-3.325h7.776c-1.108 1.288-2.413 2.416-3.888 3.325zm29-12.325c0 1.654-1.346 3-3 3v-14h-2v35.85c0 1.168-.882 2.132-2 2.15-1.103 0-2-.897-2-2v-24h-2v24c0 1.103-.897 2-2 2s-2-.897-2-2v-36h-2v14c-.952 0-1.829-.475-2.392-1.231.255-1.231.392-2.493.392-3.769 0-2.065-.349-4.093-1-6.009v-.991c0-5.514 4.486-10 10-10s10 4.486 10 10z"/><path d="m50 17h2v2h-2z"/><path d="m50 21h2v2h-2z"/><path d="m50 25h2v2h-2z"/><path d="m12 17h2v2h-2z"/><path d="m12 21h2v2h-2z"/><path d="m12 25h2v2h-2z"/></svg>