<svg height="512pt" viewBox="0 -19 512 512" width="512pt" xmlns="http://www.w3.org/2000/svg"><path d="m512 281.03125c0-88.53125-72.023438-160.558594-160.554688-160.558594-35.71875 0-68.746093 11.730469-95.445312 31.53125-26.699219-19.800781-59.726562-31.53125-95.445312-31.53125-88.53125 0-160.554688 72.027344-160.554688 160.558594 0 59.5 32.535156 111.542969 80.746094 139.277344v39.324218c0 8.28125 6.71875 15 15 15 8.285156 0 15-6.71875 15-15v-25.96875c15.691406 5.132813 32.429687 7.921876 49.808594 7.921876 17.382812 0 34.121093-2.789063 49.808593-7.921876v25.96875c0 8.28125 6.714844 15 15 15 8.285157 0 15-6.71875 15-15v-39.324218c5.417969-3.117188 10.636719-6.546875 15.636719-10.253906 5.363281 3.976562 10.984375 7.625 16.828125 10.921874v38.65625c0 8.285157 6.71875 15 15 15 8.285156 0 15-6.714843 15-15v-25.578124c15.34375 4.886718 31.675781 7.53125 48.617187 7.53125 17.820313 0 34.96875-2.921876 51-8.308594v26.355468c0 8.285157 6.714844 15 15 15 8.285157 0 15-6.714843 15-15v-40.027343c47.554688-27.90625 79.554688-79.570313 79.554688-138.574219zm-160.554688 130.554688c-71.992187 0-130.558593-58.566407-130.558593-130.554688 0-71.992188 58.566406-130.558594 130.558593-130.558594 71.988282 0 130.554688 58.566406 130.554688 130.558594 0 71.988281-58.566406 130.554688-130.554688 130.554688zm-190.890624 0c-71.988282 0-130.554688-58.566407-130.554688-130.554688 0-71.992188 58.566406-130.558594 130.554688-130.558594 26.851562 0 51.835937 8.152344 72.609374 22.105469-8.496093 9.261719-15.917968 19.515625-22.078124 30.570313l-44.816407-23.253907c-4.332031-2.246093-9.484375-2.246093-13.816406 0l-52.710937 27.351563c-6.316407 3.277344-9.457032 10.542968-7.523438 17.390625-.03125.0625-.070312.121093-.097656.1875l-19.890625 42.265625c-3.527344 7.496094-.308594 16.429687 7.1875 19.957031 2.066406.972656 4.238281 1.433594 6.378906 1.433594 5.628906 0 11.023437-3.1875 13.582031-8.617188l5.382813-11.445312 17.800781 62.101562c1.84375 6.4375 7.726562 10.871094 14.417969 10.871094h44.765625c6.695312 0 12.578125-4.4375 14.417968-10.871094l1.222657-4.257812c7.007812 23.832031 19.402343 45.375 35.777343 63.21875-20.773437 13.953125-45.757812 22.105469-72.609374 22.105469zm9.886718-100.195313h-22.15625l-23.835937-83.167969 34.914062-18.117187 34.910157 18.117187zm0 0"/><path d="m421.074219 224.824219c-.535157-1.140625-1.210938-2.171875-1.972657-3.105469.460938-5.902344-2.613281-11.660156-8.035156-14.472656l-52.710937-27.351563c-4.332031-2.25-9.488281-2.25-13.820313 0l-52.710937 27.351563c-6.316407 3.277344-9.457031 10.542968-7.523438 17.390625-.03125.0625-.066406.121093-.097656.183593l-19.886719 42.265626c-3.527344 7.496093-.3125 16.433593 7.1875 19.960937 2.0625.972656 4.234375 1.429687 6.375 1.429687 5.628906 0 11.027344-3.183593 13.582032-8.617187l5.386718-11.445313 17.796875 62.105469c1.84375 6.433594 7.726563 10.867188 14.417969 10.867188h44.765625c6.695313 0 12.578125-4.433594 14.421875-10.867188l18.699219-65.253906 6.867187 14.59375c2.558594 5.433594 7.953125 8.617187 13.585938 8.617187 2.136718 0 4.3125-.457031 6.375-1.429687 7.496094-3.527344 10.710937-12.464844 7.1875-19.960937zm-58.550781 86.566406h-22.15625l-23.835938-83.167969 34.914062-18.117187 34.910157 18.117187zm0 0"/><path d="m165.082031 63.382812h-23.058593c-8.285157 0-15 6.714844-15 15 0 8.28125 6.714843 15 15 15h23.058593c12.222657 0 23.359375-4.730468 31.6875-12.445312 8.332031 7.714844 19.46875 12.445312 31.691407 12.445312h55.078124c12.222657 0 23.359376-4.730468 31.691407-12.445312 8.332031 7.714844 19.464843 12.445312 31.6875 12.445312h23.058593c8.285157 0 15-6.71875 15-15 0-8.285156-6.714843-15-15-15h-23.058593c-9.203125 0-16.6875-7.488281-16.6875-16.691406s7.484375-16.691406 16.6875-16.691406h23.058593c8.285157 0 15-6.714844 15-15s-6.714843-15-15-15h-23.058593c-12.222657 0-23.359375 4.726562-31.6875 12.441406-8.332031-7.714844-19.46875-12.441406-31.691407-12.441406h-55.078124c-12.222657 0-23.359376 4.726562-31.691407 12.441406-8.328125-7.714844-19.464843-12.441406-31.6875-12.441406h-23.058593c-8.285157 0-15 6.714844-15 15s6.714843 15 15 15h23.058593c9.203125 0 16.6875 7.488281 16.6875 16.691406s-7.484375 16.691406-16.6875 16.691406zm63.378907-33.382812h55.078124c9.203126 0 16.691407 7.484375 16.691407 16.6875 0 9.207031-7.488281 16.691406-16.691407 16.691406h-55.078124c-9.203126 0-16.691407-7.484375-16.691407-16.691406 0-9.199219 7.488281-16.6875 16.691407-16.6875zm0 0"/></svg>