<svg height="512pt" viewBox="-57 0 512 512" width="512pt" xmlns="http://www.w3.org/2000/svg"><path d="m397.351562 126.679688v280.4375c0 7.601562-6.375 13.769531-14.246093 13.769531h-277.75c-7.871094 0-14.242188-6.167969-14.242188-13.769531v-393.347657c0-7.597656 6.371094-13.769531 14.242188-13.769531h160.960937c2.050782 0 4.0625.429688 5.898438 1.238281 1.535156.671875 2.953125 1.609375 4.175781 2.792969l116.789063 112.90625c1.21875 1.183594 2.183593 2.550781 2.886718 4.039062.835938 1.773438 1.285156 3.71875 1.285156 5.703126zm0 0" fill="#ffda44"/><path d="m397.351562 126.679688v280.4375c0 7.601562-6.375 13.769531-14.246093 13.769531h-138.871094v-420.886719h22.082031c2.050782 0 4.0625.429688 5.894532 1.238281 1.539062.671875 2.953124 1.609375 4.179687 2.792969l116.789063 112.90625c1.214843 1.183594 2.183593 2.550781 2.886718 4.039062.835938 1.773438 1.285156 3.71875 1.285156 5.703126zm0 0" fill="#ffcd00"/><path d="m396.066406 120.976562h-109.609375c-7.867187 0-14.242187-6.164062-14.242187-13.769531v-105.96875c1.535156.671875 2.953125 1.609375 4.175781 2.792969l116.789063 112.90625c1.21875 1.183594 2.183593 2.550781 2.886718 4.039062zm0 0" fill="#ffeb99"/><path d="m306.238281 217.789062v280.441407c0 7.601562-6.371093 13.769531-14.246093 13.769531h-277.746094c-7.875 0-14.246094-6.167969-14.246094-13.769531v-393.347657c0-7.601562 6.371094-13.769531 14.246094-13.769531h160.957031c2.050781 0 4.066406.429688 5.898437 1.238281 1.539063.667969 2.953126 1.605469 4.179688 2.789063l116.789062 112.910156c1.214844 1.183594 2.183594 2.550781 2.886719 4.039063.835938 1.769531 1.28125 3.71875 1.28125 5.699218zm0 0" fill="#4895ff"/><path d="m306.238281 217.789062v280.441407c0 7.601562-6.371093 13.769531-14.246093 13.769531h-138.867188v-420.886719h22.078125c2.050781 0 4.0625.429688 5.898437 1.238281 1.539063.667969 2.953126 1.605469 4.175782 2.789063l116.789062 112.910156c1.21875 1.183594 2.1875 2.550781 2.886719 4.039063.839844 1.769531 1.285156 3.71875 1.285156 5.699218zm0 0" fill="#2682ff"/><path d="m304.957031 212.089844h-109.609375c-7.867187 0-14.246094-6.167969-14.246094-13.773438v-105.964844c1.539063.667969 2.953126 1.605469 4.179688 2.789063l116.789062 112.910156c1.214844 1.183594 2.183594 2.550781 2.886719 4.039063zm0 0" fill="#aed0ff"/></svg>