<?xml version="1.0" encoding="iso-8859-1"?>
<!-- Generator: Adobe Illustrator 19.0.0, SVG Export Plug-In . SVG Version: 6.00 Build 0)  -->
<svg version="1.1" id="Layer_1" xmlns="http://www.w3.org/2000/svg" xmlns:xlink="http://www.w3.org/1999/xlink" x="0px" y="0px"
	 viewBox="0 0 512.002 512.002" style="enable-background:new 0 0 512.002 512.002;" xml:space="preserve">
<path style="fill:#66C49A;" d="M45.343,92.645v67.133l39.751,74.081v222.349c0,13.247,10.776,24.024,24.024,24.024h258.437V92.645
	H45.343z"/>
<path style="fill:#50AA7F;" d="M107.424,456.208V227.16l-39.751-74.081V92.645H45.344v67.133l39.751,74.081v222.349
	c0,13.247,10.776,24.024,24.024,24.024h22.329C118.2,480.232,107.424,469.454,107.424,456.208z"/>
<path style="fill:#DEDFE0;" d="M278.261,0h-10.048h-29.028h-74.802c-15.083,0-27.353,12.27-27.353,27.353v38.74h27.911V27.911
	h112.761v38.181h27.911v-38.74C305.614,12.27,293.345,0,278.261,0z"/>
<circle style="fill:#828186;" cx="364.298" cy="474.021" r="37.981"/>
<path style="fill:#676570;" d="M348.641,474.019c0-17.092,11.289-31.542,26.817-36.31c-3.53-1.084-7.279-1.67-11.164-1.67
	c-20.975,0-37.981,17.004-37.981,37.982c0,20.977,17.006,37.981,37.981,37.981c3.885,0,7.634-0.586,11.164-1.67
	C359.932,505.56,348.641,491.11,348.641,474.019z"/>
<path style="fill:#BDBEC0;" d="M367.556,120.556h-49.101c-7.706,0-13.956-6.248-13.956-13.956c0-7.706,6.25-13.956,13.956-13.956
	h49.101c7.706,0,13.956,6.25,13.956,13.956C381.512,114.31,375.262,120.556,367.556,120.556z"/>
<path style="fill:#828186;" d="M304.498,106.601c0-7.706,6.25-13.956,13.956-13.956h49.101c6.303,0,11.629,4.184,13.358,9.929
	c2.366-2.416,3.829-5.722,3.829-9.37V77.257c0-7.399-5.999-13.397-13.397-13.397H45.343c-7.399,0-13.397,5.999-13.397,13.397v15.946
	c0,7.399,5.999,13.397,13.397,13.397"/>
<path style="fill:#AAADAF;" d="M326.827,106.601c0-7.706,6.25-13.956,13.956-13.956h-22.329c-7.706,0-13.956,6.25-13.956,13.956
	c0,7.708,6.25,13.956,13.956,13.956h22.329C333.077,120.556,326.827,114.31,326.827,106.601z"/>
<path style="fill:#676570;" d="M54.274,93.203V77.257c0-7.399,5.999-13.397,13.397-13.397H45.343
	c-7.399,0-13.397,5.999-13.397,13.397v15.946c0,7.399,5.999,13.397,13.397,13.397h22.329
	C60.273,106.601,54.274,100.602,54.274,93.203z"/>
<circle style="fill:#DEDFE0;" cx="364.298" cy="474.021" r="8.932"/>
<path style="fill:#828186;" d="M471.677,109.392c-1.747,0-3.511-0.544-5.016-1.674l-36.17-27.112h-97.623
	c-4.625,0-8.373-3.748-8.373-8.373c0-4.625,3.748-8.373,8.373-8.373h100.414c1.81,0,3.573,0.587,5.022,1.674l38.401,28.785
	c3.7,2.773,4.451,8.022,1.678,11.722C476.739,108.235,474.223,109.392,471.677,109.392z"/>
<g>
</g>
<g>
</g>
<g>
</g>
<g>
</g>
<g>
</g>
<g>
</g>
<g>
</g>
<g>
</g>
<g>
</g>
<g>
</g>
<g>
</g>
<g>
</g>
<g>
</g>
<g>
</g>
<g>
</g>
</svg>
