<?xml version="1.0" encoding="iso-8859-1"?>
<!-- Generator: Adobe Illustrator 19.0.0, SVG Export Plug-In . SVG Version: 6.00 Build 0)  -->
<svg version="1.1" id="Layer_1" xmlns="http://www.w3.org/2000/svg" xmlns:xlink="http://www.w3.org/1999/xlink" x="0px" y="0px"
	 viewBox="0 0 512.001 512.001" style="enable-background:new 0 0 512.001 512.001;" xml:space="preserve">
<path style="fill:#DEDFE0;" d="M281.502,8.074h-9.689h-27.99h-72.128c-14.544,0-26.375,11.831-26.375,26.375v37.355h26.913V34.988
	h108.73v36.817h26.913V34.449C307.877,19.905,296.046,8.074,281.502,8.074z"/>
<path style="fill:#66C49A;" d="M320.257,126.474c-7.43,0-13.457-6.024-13.457-13.457h-35.189h-29.064h-73.764H56.909v51.277
	l38.33,71.433v214.401c0,12.793,10.37,23.165,23.165,23.165h29.067h12.725h27.452h26.054h74.757h39.872
	c-0.322-1.95-0.496-3.949-0.496-5.991c0-20.227,16.398-36.623,36.624-36.623c1.061,0,2.107,0.055,3.146,0.143V126.474H320.257z"/>
<circle style="fill:#828186;" cx="364.463" cy="467.304" r="36.624"/>
<path style="fill:#BDBEC0;" d="M367.604,126.474h-47.346c-7.43,0-13.457-6.024-13.457-13.457c0-7.43,6.026-13.457,13.457-13.457
	h47.346c7.43,0,13.457,6.026,13.457,13.457C381.061,120.451,375.035,126.474,367.604,126.474z"/>
<path style="fill:#828186;" d="M371.258,71.804H56.909c-7.134,0-12.918,5.784-12.918,12.918v15.376
	c0,7.134,5.784,12.918,12.918,12.918H306.8c0-7.43,6.026-13.457,13.457-13.457h47.346c6.078,0,11.213,4.035,12.881,9.574
	c2.281-2.33,3.693-5.517,3.693-9.035V84.723C384.177,77.588,378.392,71.804,371.258,71.804z"/>
<path style="fill:#50AA7F;" d="M126.46,450.128V227.114l-38.33-71.433v-42.664H56.91v51.277l38.33,71.433v214.401
	c0,12.793,10.37,23.165,23.165,23.165h29.067h2.153C136.83,473.293,126.46,462.921,126.46,450.128z"/>
<path style="fill:#676570;" d="M359.054,467.302c0-14.642,8.596-27.273,21.014-33.133c-4.735-2.235-10.026-3.49-15.61-3.49
	c-20.225,0-36.624,16.396-36.624,36.623c0,20.227,16.398,36.624,36.624,36.624c5.585,0,10.875-1.255,15.61-3.49
	C367.652,494.575,359.054,481.945,359.054,467.302z"/>
<path style="fill:#AAADAF;" d="M338.02,113.017c0-7.43,6.026-13.457,13.457-13.457h-31.22c-7.43,0-13.457,6.026-13.457,13.457
	c0,7.432,6.026,13.457,13.457,13.457h31.22C344.046,126.474,338.02,120.451,338.02,113.017z"/>
<g>
	<path style="fill:#676570;" d="M75.21,100.099V84.723c0-7.134,5.784-12.918,12.918-12.918h-31.22
		c-7.134,0-12.918,5.784-12.918,12.918v15.376c0,7.134,5.784,12.918,12.918,12.918h31.22
		C80.994,113.017,75.21,107.233,75.21,100.099z"/>
	<path style="fill:#676570;" d="M367.604,99.561c6.078,0,11.213,4.035,12.881,9.574c2.281-2.33,3.693-5.517,3.693-9.035v-0.538
		H367.604z"/>
</g>
<g>
	<circle style="fill:#010101;" cx="364.463" cy="467.304" r="8.612"/>
	<path style="fill:#010101;" d="M472.852,93.1l-37.029-27.756c-1.397-1.047-3.096-1.614-4.842-1.614h-59.723h-37.103h-18.204V34.449
		C315.951,15.454,300.497,0,281.502,0H171.695c-18.996,0-34.449,15.454-34.449,34.449V63.73H56.909
		c-11.575,0-20.993,9.418-20.993,20.993v15.376c0,8.715,5.341,16.203,12.918,19.372v44.822c0,1.332,0.33,2.644,0.96,3.817
		l37.371,69.643v212.372c0,17.225,14.014,31.239,31.239,31.239h41.791c4.46,0,8.074-3.614,8.074-8.074
		c0-4.46-3.614-8.074-8.074-8.074h-41.791c-8.321,0-15.091-6.769-15.091-15.091V235.727c0-1.332-0.33-2.644-0.96-3.817
		l-37.371-69.643v-41.173h177.563c4.46,0,8.074-3.614,8.074-8.074c0-4.46-3.614-8.074-8.074-8.074H56.909
		c-2.671,0-4.844-2.174-4.844-4.844V84.723c0-2.671,2.174-4.844,4.844-4.844h88.411h26.913h108.73h26.913h26.278h37.103
		c2.671,0,4.844,2.174,4.844,4.844v8.52c-2.61-1.126-5.481-1.756-8.499-1.756h-47.346c-9.016,0-16.743,5.576-19.946,13.457h-28.699
		c-4.46,0-8.074,3.614-8.074,8.074c0,4.46,3.614,8.074,8.074,8.074h28.685c0.024,0.058,0.054,0.114,0.078,0.172
		c0.064,0.152,0.135,0.298,0.201,0.448c0.193,0.436,0.398,0.863,0.619,1.283c0.093,0.177,0.187,0.352,0.284,0.525
		c0.238,0.424,0.492,0.839,0.757,1.244c0.08,0.122,0.154,0.248,0.236,0.368c0.351,0.514,0.723,1.012,1.116,1.492
		c0.089,0.11,0.186,0.212,0.278,0.32c0.315,0.371,0.643,0.732,0.983,1.081c0.138,0.142,0.279,0.281,0.421,0.419
		c0.335,0.325,0.681,0.638,1.037,0.942c0.126,0.108,0.247,0.219,0.375,0.323c0.481,0.392,0.977,0.766,1.492,1.116
		c0.094,0.064,0.192,0.12,0.286,0.182c0.431,0.283,0.87,0.551,1.321,0.803c0.172,0.096,0.347,0.187,0.521,0.28
		c0.409,0.214,0.827,0.416,1.252,0.604c0.165,0.073,0.326,0.15,0.493,0.22c0.582,0.241,1.174,0.463,1.782,0.653
		c0.07,0.022,0.142,0.038,0.213,0.058c0.542,0.164,1.092,0.304,1.649,0.425c0.195,0.042,0.392,0.077,0.588,0.114
		c0.464,0.087,0.932,0.158,1.406,0.215c0.196,0.024,0.39,0.05,0.587,0.068c0.656,0.06,1.315,0.101,1.986,0.101h39.272v288.326
		c-0.436,0.048-0.867,0.113-1.298,0.173c-0.214,0.03-0.431,0.053-0.644,0.086c-0.704,0.109-1.402,0.234-2.095,0.375
		c-0.135,0.028-0.267,0.062-0.402,0.091c-0.559,0.119-1.114,0.245-1.665,0.385c-0.24,0.061-0.477,0.131-0.716,0.197
		c-0.44,0.121-0.881,0.241-1.316,0.375c-0.264,0.081-0.523,0.169-0.785,0.254c-0.405,0.132-0.81,0.267-1.21,0.41
		c-0.268,0.096-0.534,0.198-0.8,0.299c-0.388,0.147-0.773,0.298-1.155,0.456c-0.266,0.11-0.529,0.223-0.791,0.337
		c-0.379,0.165-0.754,0.335-1.127,0.51c-0.256,0.121-0.51,0.241-0.764,0.366c-0.376,0.185-0.748,0.378-1.117,0.574
		c-0.241,0.127-0.482,0.253-0.72,0.385c-0.383,0.212-0.761,0.432-1.137,0.655c-0.216,0.128-0.435,0.252-0.648,0.383
		c-0.413,0.254-0.819,0.519-1.224,0.786c-0.168,0.111-0.34,0.217-0.507,0.331c-1.142,0.776-2.248,1.603-3.311,2.478
		c-0.133,0.11-0.262,0.225-0.393,0.336c-0.392,0.331-0.782,0.663-1.162,1.007c-0.175,0.158-0.346,0.322-0.518,0.483
		c-0.328,0.306-0.655,0.613-0.973,0.928c-0.185,0.184-0.367,0.371-0.549,0.559c-0.297,0.304-0.591,0.61-0.88,0.922
		c-0.184,0.2-0.366,0.403-0.547,0.606c-0.277,0.311-0.549,0.624-0.817,0.943c-0.178,0.211-0.353,0.422-0.526,0.636
		c-0.263,0.324-0.519,0.652-0.773,0.983c-0.165,0.215-0.331,0.431-0.491,0.649c-0.253,0.343-0.498,0.692-0.743,1.043
		c-0.15,0.215-0.3,0.428-0.446,0.646c-0.252,0.376-0.493,0.758-0.733,1.142c-0.125,0.2-0.254,0.397-0.376,0.599
		c-0.279,0.462-0.546,0.931-0.807,1.403c-0.072,0.13-0.15,0.257-0.221,0.388c-0.331,0.609-0.647,1.226-0.949,1.853
		c-0.062,0.129-0.118,0.263-0.18,0.393c-0.233,0.494-0.461,0.99-0.676,1.493c-0.098,0.229-0.187,0.462-0.281,0.693
		c-0.168,0.412-0.335,0.825-0.491,1.242c-0.098,0.263-0.188,0.53-0.282,0.794c-0.138,0.393-0.275,0.786-0.402,1.183
		c-0.09,0.282-0.174,0.566-0.259,0.852c-0.116,0.389-0.228,0.778-0.334,1.171c-0.079,0.294-0.154,0.589-0.227,0.886
		c-0.096,0.39-0.186,0.782-0.272,1.176c-0.066,0.303-0.13,0.605-0.189,0.909c-0.079,0.398-0.147,0.799-0.215,1.2
		c-0.051,0.303-0.102,0.606-0.147,0.911c-0.06,0.416-0.111,0.835-0.159,1.255c-0.034,0.295-0.073,0.589-0.102,0.885
		c-0.044,0.456-0.074,0.917-0.105,1.378c-0.017,0.264-0.042,0.526-0.055,0.791c-0.002,0.033-0.005,0.067-0.008,0.1H187.648
		c-4.46,0-8.074,3.614-8.074,8.074s3.614,8.074,8.074,8.074h134.394c5.909,17.774,22.685,30.633,42.418,30.633
		c24.648,0,44.699-20.052,44.699-44.698c0-20.773-14.245-38.28-33.48-43.27V132.963c7.88-3.202,13.457-10.929,13.457-19.946
		c0-0.606-0.042-1.201-0.09-1.795c2.079-3.309,3.207-7.133,3.207-11.124V84.723c0-1.67-0.216-3.287-0.587-4.844h36.627
		l34.877,26.143c1.452,1.089,3.151,1.614,4.836,1.614c2.456,0,4.881-1.115,6.467-3.232C477.145,100.835,476.421,95.775,472.852,93.1
		z M272.889,63.73h-92.582V43.062h92.582V63.73z M289.037,63.73V34.988c0-4.46-3.614-8.074-8.074-8.074h-108.73
		c-4.46,0-8.074,3.614-8.074,8.074V63.73h-10.765V34.449c0-10.091,8.21-18.301,18.301-18.301h109.807
		c10.091,0,18.301,8.21,18.301,18.301V63.73C299.803,63.73,289.037,63.73,289.037,63.73z M320.257,118.4
		c-2.968,0-5.383-2.415-5.383-5.383c0-2.968,2.415-5.383,5.383-5.383h47.346c0.334,0,0.658,0.04,0.975,0.099
		c0.128,0.024,0.252,0.061,0.378,0.095c0.18,0.047,0.356,0.1,0.527,0.164c0.146,0.056,0.291,0.117,0.431,0.185
		c0.14,0.067,0.273,0.142,0.406,0.221c0.141,0.084,0.283,0.166,0.417,0.262c0.129,0.094,0.248,0.199,0.368,0.304
		c0.131,0.113,0.264,0.224,0.384,0.349c0.189,0.199,0.366,0.409,0.524,0.635c0.073,0.105,0.132,0.222,0.198,0.333
		c0.098,0.165,0.194,0.329,0.275,0.504c0.059,0.129,0.108,0.264,0.156,0.397c0.211,0.576,0.344,1.188,0.344,1.837
		c0,2.968-2.415,5.383-5.383,5.383C367.604,118.4,320.257,118.4,320.257,118.4z M393.01,467.302c0,15.742-12.808,28.55-28.551,28.55
		c-14.158,0-25.935-10.361-28.164-23.897c-0.121-0.734-0.209-1.471-0.273-2.205c-0.008-0.093-0.014-0.186-0.022-0.28
		c-0.056-0.727-0.09-1.451-0.09-2.168c0-15.742,12.807-28.55,28.55-28.55c0.409,0,0.815,0.014,1.22,0.031
		c0.395,0.018,0.806,0.045,1.241,0.083c0.004,0,0.01,0,0.014,0C381.522,440.126,393.01,452.394,393.01,467.302z"/>
</g>
<g>
</g>
<g>
</g>
<g>
</g>
<g>
</g>
<g>
</g>
<g>
</g>
<g>
</g>
<g>
</g>
<g>
</g>
<g>
</g>
<g>
</g>
<g>
</g>
<g>
</g>
<g>
</g>
<g>
</g>
</svg>
