<svg height="45px" viewBox="0 0 496 496" width="45px" xmlns="http://www.w3.org/2000/svg"><path d="m296 136h-272c-8.800781 0-16 7.199219-16 16v320c0 8.800781 7.199219 16 16 16h304c8.800781 0 16-7.199219 16-16v-272zm0 0" fill="#48cfad"/><path d="m296 136v128h-240v-128zm0 0" fill="#e6e9ed"/><path d="m488 104v272h-144v-176l-48-64h-128v-128h240v96zm0 0" fill="#f0d0b4"/><path d="m376 216h80v128h-80zm0 0" fill="#e6e9ed"/><path d="m56 328h240v160h-240zm0 0" fill="#ffeaa7"/><path d="m200 200h64v32h-64zm0 0" fill="#fcd770"/><path d="m408 8 80 96h-80zm0 0" fill="#fcd770"/><path d="m200 40h176v64h-176zm0 0" fill="#fcd770"/><path d="m88 168h32v64h-32zm0 0" fill="#48cfad"/><g fill="#1e1713"><path d="m80 240h48v-80h-48zm16-64h16v48h-16zm0 0"/><path d="m192 240h80v-48h-80zm16-32h48v16h-48zm0 0"/><path d="m192 160h80v16h-80zm0 0"/><path d="m80 352h32v16h-32zm0 0"/><path d="m128 352h144v16h-144zm0 0"/><path d="m80 384h192v16h-192zm0 0"/><path d="m176 416h96v16h-96zm0 0"/><path d="m80 416h80v16h-80zm0 0"/><path d="m80 448h144v16h-144zm0 0"/><path d="m240 448h32v16h-32zm0 0"/><path d="m496 101.105469-84.257812-101.105469h-251.742188v128h-136c-13.230469 0-24 10.769531-24 24v320c0 13.230469 10.769531 24 24 24h304c13.230469 0 24-10.769531 24-24v-88h144zm-80-71.007813 54.921875 65.902344h-54.921875zm-352 113.902344h224v112h-224zm224 336h-224v-144h224zm48-8c0 4.414062-3.59375 8-8 8h-24v-160h-256v160h-24c-4.40625 0-8-3.585938-8-8v-320c0-4.414062 3.59375-8 8-8h24v128h256v-112l32 42.664062zm16-104v-170.664062l-52-69.335938h-124v-112h224v96h80v256zm0 0"/><path d="m368 352h96v-144h-96zm16-128h64v112h-64zm0 0"/><path d="m368 176h96v16h-96zm0 0"/><path d="m368 144h96v16h-96zm0 0"/><path d="m384 32h-192v80h192zm-16 64h-160v-48h160zm0 0"/></g></svg>