<svg height="512pt" viewBox="-68 0 512 512" width="512pt" xmlns="http://www.w3.org/2000/svg"><path d="m276.613281 10h-175.277343c-15.136719 0-28.976563 8.542969-35.761719 22.074219l-51.324219 102.402343c-3.753906 7.492188-5.0625 15.972657-3.738281 24.25l49.570312 309.597657c3.105469 19.402343 19.847657 33.675781 39.496094 33.675781h178.792969c19.648437 0 36.386718-14.273438 39.496094-33.675781l49.570312-309.597657c1.324219-8.273437.015625-16.757812-3.738281-24.25l-51.324219-102.402343c-6.785156-13.53125-20.625-22.074219-35.761719-22.074219zm0 0" fill="#78d0a9"/><path d="m324.730469 146-48.117188-96h-175.277343l-48.117188 96zm0 0" fill="#ddf3e9"/><path d="m372.636719 129.996094-51.324219-102.398438c-8.53125-17.023437-25.660156-27.597656-44.699219-27.597656h-175.277343c-19.042969 0-36.167969 10.574219-44.699219 27.597656l-51.328125 102.398438c-4.722656 9.421875-6.335938 19.902344-4.671875 30.3125l49.570312 309.597656c3.90625 24.390625 24.667969 42.09375 49.371094 42.09375h178.792969c24.699218 0 45.464844-17.703125 49.367187-42.09375l49.570313-309.601562c1.667968-10.40625.050781-20.886719-4.671875-30.308594zm-298.121094-93.4375c5.117187-10.214844 15.394531-16.558594 26.820313-16.558594h175.277343c11.425781 0 21.699219 6.34375 26.820313 16.558594l49.84375 99.441406h-22.375l-45.347656-90.480469c-1.695313-3.382812-5.15625-5.519531-8.941407-5.519531h-43.550781c-5.523438 0-10 4.476562-10 10s4.476562 10 10 10h37.378906l38.089844 76h-239.117188l38.09375-76h35.558594c5.519532 0 10-4.476562 10-10s-4.480468-10-10-10h-41.730468c-3.785157 0-7.246094 2.136719-8.941407 5.519531l-45.351562 90.480469h-22.371094zm233.476563 430.183594c-2.34375 14.636718-14.800782 25.257812-29.621094 25.257812h-178.792969c-14.820313 0-27.277344-10.621094-29.621094-25.257812l-49.570312-309.597657c-.0625-.378906-.09375-.761719-.140625-1.144531h337.453125c-.042969.382812-.074219.761719-.136719 1.144531zm0 0"/><path d="m267.101562 302.824219c-2.757812-4.78125-8.875-6.421875-13.660156-3.660157-4.78125 2.761719-6.421875 8.875-3.660156 13.660157l21.808594 37.769531h-32.070313c2.265625-3.101562 2.636719-7.367188.59375-10.910156-2.761719-4.78125-8.875-6.421875-13.660156-3.660156l-27.550781 15.910156c-3.09375 1.785156-5 5.085937-5 8.660156 0 3.570312 1.90625 6.871094 5 8.660156l27.550781 15.90625c1.574219.910156 3.296875 1.34375 4.992187 1.339844 3.453126 0 6.816407-1.792969 8.667969-5 2.042969-3.539062 1.671875-7.808594-.59375-10.90625h49.390625c3.570313 0 6.875-1.90625 8.660156-5 1.785157-3.097656 1.785157-6.90625 0-10zm0 0"/><path d="m147.972656 350.59375h-41.613281l21.777344-37.722656c1.746093 2.980468 4.976562 4.953125 8.621093 4.953125.199219 0 .394532-.003907.597657-.015625 5.511719-.324219 9.71875-5.058594 9.394531-10.570313l-1.894531-32.203125c-.207031-3.566406-2.304688-6.75-5.5-8.351562-3.191407-1.601563-7-1.375-9.980469.585937l-26.941406 17.742188c-4.609375 3.035156-5.886719 9.238281-2.851563 13.851562 2.480469 3.769531 7.074219 5.308594 11.1875 4.089844l-30.390625 52.640625c-1.785156 3.09375-1.785156 6.902344 0 10 1.785156 3.09375 5.089844 5 8.660156 5h58.933594c5.523438 0 10-4.480469 10-10 0-5.523438-4.476562-10-10-10zm-22.0625-57.03125c-.019531-.007812-.039062-.015625-.058594-.023438l.054688-.035156zm0 0"/><path d="m196.742188 243.167969c-2.761719 4.78125-1.121094 10.898437 3.660156 13.660156l27.859375 16.082031c1.546875.894532 3.273437 1.34375 5 1.34375 1.726562 0 3.453125-.449218 5-1.34375 3.09375-1.785156 5-5.085937 5-8.65625v-32.171875c0-5.523437-4.476563-10-10-10-4.15625 0-7.71875 2.535157-9.226563 6.144531l-26.402344-45.726562c-1.785156-3.09375-5.085937-5-8.660156-5-3.570312 0-6.871094 1.90625-8.660156 5l-29.921875 51.832031c-2.761719 4.78125-1.125 10.898438 3.660156 13.660157 4.785157 2.761718 10.898438 1.121093 13.660157-3.660157l21.261718-36.832031 17.757813 30.757812c-3.894531-.523437-7.898438 1.292969-9.988281 4.910157zm0 0"/><path d="m189.105469 60c2.628906 0 5.199219-1.070312 7.070312-2.929688 1.855469-1.859374 2.929688-4.441406 2.929688-7.070312s-1.070313-5.210938-2.929688-7.070312c-1.863281-1.859376-4.441406-2.929688-7.070312-2.929688-2.640625 0-5.222657 1.070312-7.070313 2.929688-1.859375 1.859374-2.929687 4.441406-2.929687 7.070312s1.070312 5.210938 2.929687 7.070312c1.859375 1.859376 4.4375 2.929688 7.070313 2.929688zm0 0"/></svg>